<svg width="42" height="27" viewBox="0 0 42 27" fill="none" xmlns="http://www.w3.org/2000/svg">
<path d="M0 27V22.8462H21V27H0ZM0 16.6154V12.4615H10.5V16.6154H0ZM0 6.23077V2.07692H10.5V6.23077H0ZM39.06 27L30.975 19.0038C30.135 19.5923 29.2159 20.034 28.2177 20.3289C27.2195 20.6238 26.2136 20.7706 25.2 20.7692C22.295 20.7692 19.8184 19.7564 17.7702 17.7307C15.722 15.705 14.6986 13.2563 14.7 10.3846C14.7 7.51154 15.7241 5.06215 17.7723 3.03646C19.8205 1.01077 22.2964 -0.0013832 25.2 1.41866e-06C28.105 1.41866e-06 30.5816 1.01285 32.6298 3.03854C34.678 5.06423 35.7014 7.51292 35.7 10.3846C35.7 11.3885 35.5509 12.384 35.2527 13.3712C34.9545 14.3585 34.5086 15.2668 33.915 16.0962L42 24.0923L39.06 27ZM25.2 16.6154C26.95 16.6154 28.4375 16.0096 29.6625 14.7981C30.8875 13.5865 31.5 12.1154 31.5 10.3846C31.5 8.65385 30.8875 7.18269 29.6625 5.97115C28.4375 4.75962 26.95 4.15385 25.2 4.15385C23.45 4.15385 21.9625 4.75962 20.7375 5.97115C19.5125 7.18269 18.9 8.65385 18.9 10.3846C18.9 12.1154 19.5125 13.5865 20.7375 14.7981C21.9625 16.0096 23.45 16.6154 25.2 16.6154Z" fill="#5CA84D"/>
</svg>
